<svg width="24" height="25" viewBox="0 0 24 25" fill="none" xmlns="http://www.w3.org/2000/svg">
<g clip-path="url(#clip0_1555_20631)">
<path d="M19.881 4.71826H4.39173C3.32684 4.71826 2.46525 5.58954 2.46525 6.65443L2.45557 18.2714C2.45557 19.3363 3.32684 20.2076 4.39173 20.2076H19.881C20.9459 20.2076 21.8172 19.3363 21.8172 18.2714V6.65443C21.8172 5.58954 20.9459 4.71826 19.881 4.71826ZM18.913 18.2714H5.35981C4.82737 18.2714 4.39173 17.8358 4.39173 17.3033V8.59059L11.1102 12.7921C11.7395 13.189 12.5333 13.189 13.1626 12.7921L19.881 8.59059V17.3033C19.881 17.8358 19.4454 18.2714 18.913 18.2714ZM12.1364 11.4948L4.39173 6.65443H19.881L12.1364 11.4948Z" fill="#BDBDBD"/>
</g>
<defs>
<clipPath id="clip0_1555_20631">
<rect width="23.234" height="23.234" fill="white" transform="translate(0.519531 0.845703)"/>
</clipPath>
</defs>
</svg>
