<svg width="25" height="24" viewBox="0 0 25 24" fill="none" xmlns="http://www.w3.org/2000/svg">
<g clip-path="url(#clip0_1555_20625)">
<path d="M16.3605 10.3205C16.0797 10.0398 15.615 10.0398 15.3343 10.3205L11.1231 14.5317L9.58388 12.9925C9.30314 12.7117 8.83846 12.7117 8.55772 12.9925C8.27697 13.2732 8.27697 13.7379 8.55772 14.0186L10.4358 15.8967C10.8133 16.2743 11.4232 16.2743 11.8008 15.8967L16.3508 11.3467C16.6412 11.066 16.6412 10.6013 16.3605 10.3205ZM19.2647 3.03089H18.2966V2.06281C18.2966 1.53036 17.861 1.09473 17.3285 1.09473C16.7961 1.09473 16.3605 1.53036 16.3605 2.06281V3.03089H8.6158V2.06281C8.6158 1.53036 8.18016 1.09473 7.64772 1.09473C7.11527 1.09473 6.67964 1.53036 6.67964 2.06281V3.03089H5.71155C4.63698 3.03089 3.78507 3.90216 3.78507 4.96705L3.77539 18.5202C3.77539 19.5851 4.63698 20.4564 5.71155 20.4564H19.2647C20.3296 20.4564 21.2009 19.5851 21.2009 18.5202V4.96705C21.2009 3.90216 20.3296 3.03089 19.2647 3.03089ZM18.2966 18.5202H6.67964C6.14719 18.5202 5.71155 18.0846 5.71155 17.5521V7.8713H19.2647V17.5521C19.2647 18.0846 18.8291 18.5202 18.2966 18.5202Z" fill="#BDBDBD"/>
</g>
<defs>
<clipPath id="clip0_1555_20625">
<rect width="23.234" height="23.234" fill="white" transform="translate(0.871094 0.126465)"/>
</clipPath>
</defs>
</svg>
